# xmcd
#
# Track frame offsets: 
#        150
#        12346
#        24350
#        34122
#        46044
#        58658
#        67937
#        82146
#        93713
#        108645
#        117854
#        127855
#        142459
#        158181
#        172949
#        184190
#
# Disc length: 2606 seconds
#
# Revision: 2
# Processed by: cddbd v1.5.2PL0 Copyright (c) Steve Scherf et al.
# Submitted via: ExactAudioCopyFreeDBPlugin 1.0
#
DISCID=d70a2c10
DTITLE=Varios - Country and Western Vol.2 CD 1
DYEAR=1900
DGENRE=Country
TTITLE0=Dave and Sugar - The door is always open
TTITLE1=Dolly Parton - Jolene
TTITLE2=Jonny Hill - Help me make it through the night
TTITLE3=Conway Twitty - You made me what I am
TTITLE4=Johnny Paycheck - Georgia in a jug
TTITLE5=Faron Young - I can´t help it I´m still in love
TTITLE6=Gail Gavan - Pretend
TTITLE7=Jonny Hill - You´ve got a hold on me
TTITLE8=Anne Murray - There goes my everything
TTITLE9=Chet Atkins - Yakety axe
TTITLE10=Don Williams - Take my hand for a while
TTITLE11=Ray Griff - Getting back to norma
TTITLE12=Jonny Hill - Lucille
TTITLE13=Jeanny C. Riley - Harper valley P.T.A.
TTITLE14=Patsy Cline - Just out of reach
TTITLE15=Don Gibson - Oh lonesome me
EXTD=
EXTT0=
EXTT1=
EXTT2=
EXTT3=
EXTT4=
EXTT5=
EXTT6=
EXTT7=
EXTT8=
EXTT9=
EXTT10=
EXTT11=
EXTT12=
EXTT13=
EXTT14=
EXTT15=
PLAYORDER=
